# xmcd CD database file
#
# Track frame offsets:
#	150
#	17405
#	35931
#	52535
#	67561
#	86060
#	99400
#	115293
#	128741
#	151999
#	168526
#	183751
#	200776
#	215139
#	225526
#	236026
#	252057
#
# Disc length: 3579 seconds
#
# Revision: 0
# Processed by: cddbd v1.5.2PL0 Copyright (c) Steve Scherf et al.
# Submitted via: CDex 1.70beta2
#
DISCID=db0df911
DTITLE=Steve, Bob and Rich - Balls
DYEAR=1984
DGENRE=Country
TTITLE0=Let My People Go-Go
TTITLE1=Nobody Knows
TTITLE2=EGBDF
TTITLE3=Kissin' Time
TTITLE4=A Only Chile
TTITLE5=Big Fat Blonde
TTITLE6=Makes No Sense
TTITLE7=Christine
TTITLE8=Information
TTITLE9=Roll On
TTITLE10=Subterranean Homesick Blues (Live)
TTITLE11=Rough Boys (Live)
TTITLE12=Don't Let Go (Live)
TTITLE13=Nasty Man (Live)
TTITLE14=Rockin' All Over the World (Live)
TTITLE15=Let My People Go-Go (Live)
TTITLE16=Switchblade (Live)
EXTD=YEAR: 1984
EXTT0=
EXTT1=
EXTT2=
EXTT3=
EXTT4=
EXTT5=
EXTT6=
EXTT7=
EXTT8=
EXTT9=
EXTT10=
EXTT11=
EXTT12=
EXTT13=
EXTT14=
EXTT15=
EXTT16=
PLAYORDER=
